<svg xmlns="http://www.w3.org/2000/svg" xmlns:xlink="http://www.w3.org/1999/xlink" viewBox="0 0 495.05 362.38"><defs><style>.cls-1{fill:url(#radial-gradient);}.cls-2{fill:url(#radial-gradient-2);}.cls-3{fill:url(#radial-gradient-3);}.cls-4{fill:#2e3192;}.cls-5{fill:#cfecf7;}.cls-6{fill:url(#radial-gradient-4);}.cls-7{fill:#00aeef;}</style><radialGradient id="radial-gradient" cx="403.55" cy="99.11" fx="451.4698303227116" r="47.94" gradientUnits="userSpaceOnUse"><stop offset="0" stop-color="#00aeef"/><stop offset="1" stop-color="#2e3192"/></radialGradient><radialGradient id="radial-gradient-2" cx="314.98" cy="47.94" fx="342.3961352216419" fy="40.97786219425127" r="28.29" gradientUnits="userSpaceOnUse"><stop offset="0.63" stop-color="#2b3990"/><stop offset="0.73" stop-color="#2a3d93"/><stop offset="0.82" stop-color="#274a9c"/><stop offset="0.92" stop-color="#225eab"/><stop offset="1" stop-color="#1c75bc"/></radialGradient><radialGradient id="radial-gradient-3" cx="376.36" cy="16.55" r="21.89" gradientUnits="userSpaceOnUse"><stop offset="0.12" stop-color="#00aeef"/><stop offset="1" stop-color="#2e3192"/></radialGradient><radialGradient id="radial-gradient-4" cx="241.56" cy="246.07" fy="406.53801501698456" r="160.47" gradientUnits="userSpaceOnUse"><stop offset="0.69" stop-color="#27aae1"/><stop offset="1" stop-color="#2e3192"/></radialGradient></defs><g id="Layer_2" data-name="Layer 2"><g id="Layer_1-2" data-name="Layer 1"><circle class="cls-1" cx="403.55" cy="99.11" r="47.94"/><circle class="cls-2" cx="314.98" cy="47.94" r="28.29"/><circle class="cls-3" cx="376.36" cy="16.55" r="16.55"/><path class="cls-4" d="M46.8,292.34a1.43,1.43,0,0,1-1,.43H21a.54.54,0,0,0-.61.61v15.5a.54.54,0,0,0,.61.62H34.56a1.43,1.43,0,0,1,1,.43,1.44,1.44,0,0,1,.43,1v14.64a1.49,1.49,0,0,1-1.48,1.48H21a.54.54,0,0,0-.61.61v32.22A1.45,1.45,0,0,1,20,361a1.43,1.43,0,0,1-1,.43H1.48a1.43,1.43,0,0,1-1-.43A1.41,1.41,0,0,1,0,359.92V276.78a1.43,1.43,0,0,1,.43-1,1.47,1.47,0,0,1,1.05-.43H45.75a1.47,1.47,0,0,1,1,.43,1.43,1.43,0,0,1,.43,1v14.51A1.41,1.41,0,0,1,46.8,292.34Z"/><path class="cls-4" d="M53,361a1.41,1.41,0,0,1-.43-1.05V276.78A1.47,1.47,0,0,1,54,275.3H71.46a1.47,1.47,0,0,1,1.47,1.48v83.14A1.41,1.41,0,0,1,72.5,361a1.39,1.39,0,0,1-1,.43H54A1.39,1.39,0,0,1,53,361Z"/><path class="cls-4" d="M110.82,360.17l-8.37-32.59a.58.58,0,0,0-.61-.49H100a.54.54,0,0,0-.61.61v32.22A1.45,1.45,0,0,1,99,361a1.43,1.43,0,0,1-1,.43H80.44A1.47,1.47,0,0,1,79,359.92V276.78a1.43,1.43,0,0,1,.43-1,1.45,1.45,0,0,1,1-.43h26.44a23.78,23.78,0,0,1,12.67,3.39,22.52,22.52,0,0,1,8.55,9.47,30.76,30.76,0,0,1,3,13.83,29.17,29.17,0,0,1-2.52,12.36,22.09,22.09,0,0,1-7.07,8.8.82.82,0,0,0-.37.31.37.37,0,0,0,0,.43l10.57,35.79.13.49q0,1.23-1.35,1.23h-18A1.61,1.61,0,0,1,110.82,360.17ZM99.38,293.38v17.47a.54.54,0,0,0,.61.62h3.45a6.41,6.41,0,0,0,5.28-2.46,10.52,10.52,0,0,0,2-6.77c0-3-.65-5.37-2-7a6.41,6.41,0,0,0-5.28-2.46H100A.54.54,0,0,0,99.38,293.38Z"/><path class="cls-4" d="M146.61,359.49a21.25,21.25,0,0,1-8.8-8.11,22.64,22.64,0,0,1-3.14-11.87v-3.82a1.46,1.46,0,0,1,.43-1,1.43,1.43,0,0,1,1.05-.43h17.22a1.39,1.39,0,0,1,1,.43,1.43,1.43,0,0,1,.44,1v2.83a7.18,7.18,0,0,0,1.41,4.68,4.47,4.47,0,0,0,3.63,1.72,4.55,4.55,0,0,0,3.63-1.66,6.33,6.33,0,0,0,1.41-4.24,7.18,7.18,0,0,0-2.21-5.11,78.55,78.55,0,0,0-8.86-7.07,127.2,127.2,0,0,1-10.08-7.93,31.81,31.81,0,0,1-6.77-8.74,25,25,0,0,1-2.83-12.11,24.31,24.31,0,0,1,3.14-12.42,21.28,21.28,0,0,1,8.85-8.37,30.57,30.57,0,0,1,26.33.06,21.56,21.56,0,0,1,8.85,8.49,24.92,24.92,0,0,1,3.14,12.61v2.95a1.49,1.49,0,0,1-1.48,1.48H165.92a1.42,1.42,0,0,1-1-.44,1.39,1.39,0,0,1-.43-1v-3.44a6.53,6.53,0,0,0-1.48-4.43,4.64,4.64,0,0,0-3.69-1.72,4.3,4.3,0,0,0-3.56,1.72,7.11,7.11,0,0,0-1.36,4.55,8.29,8.29,0,0,0,2.1,5.53,54.73,54.73,0,0,0,8.48,7.14q7.75,5.77,11.69,9.34a27.65,27.65,0,0,1,6.15,7.94A22.5,22.5,0,0,1,185,338.28q0,11.07-6.95,17.59t-18.26,6.51A28.45,28.45,0,0,1,146.61,359.49Z"/><path class="cls-4" d="M241.13,275.73a1.47,1.47,0,0,1,.43,1v14.51a1.45,1.45,0,0,1-.43,1,1.43,1.43,0,0,1-1,.43H224.83a.55.55,0,0,0-.62.61v66.54a1.44,1.44,0,0,1-.42,1.05,1.43,1.43,0,0,1-1,.43H205.27a1.39,1.39,0,0,1-1-.43,1.41,1.41,0,0,1-.43-1.05V293.38a.55.55,0,0,0-.62-.61H188.55a1.43,1.43,0,0,1-1.05-.43,1.41,1.41,0,0,1-.43-1V276.78a1.43,1.43,0,0,1,.43-1,1.47,1.47,0,0,1,1.05-.43h51.53A1.47,1.47,0,0,1,241.13,275.73Z"/><path class="cls-5" d="M304.87,248a8.6,8.6,0,0,0,8.51-9.79,72.49,72.49,0,0,0-143.65,0,8.61,8.61,0,0,0,8.51,9.79Z"/><path class="cls-6" d="M116,248a32,32,0,0,0,31.07-24.09,97.52,97.52,0,0,1,189,0A32,32,0,0,0,367.11,248H381.3a8.91,8.91,0,0,0,8.87-9.52,148.92,148.92,0,0,0-297.23,0,8.92,8.92,0,0,0,8.87,9.52Z"/><path class="cls-7" d="M248.87,361a1.41,1.41,0,0,1-.43-1.05V276.78a1.43,1.43,0,0,1,.43-1,1.47,1.47,0,0,1,1-.43h23.49q11.8,0,18.94,6.65t7.14,17.58v37.64q0,10.95-7.14,17.59t-18.94,6.64H249.92A1.43,1.43,0,0,1,248.87,361Zm20.6-17,3.45-.13a5.65,5.65,0,0,0,4.3-2.27,9.42,9.42,0,0,0,1.85-5.72V300.89a9.44,9.44,0,0,0-1.72-5.91,5.5,5.5,0,0,0-4.55-2.21h-3.33a.54.54,0,0,0-.61.61v49.94A.54.54,0,0,0,269.47,343.94Z"/><path class="cls-7" d="M338.35,360.05l-1.6-10.7c0-.41-.24-.62-.74-.62H322.73c-.49,0-.74.21-.74.62l-1.47,10.7a1.39,1.39,0,0,1-1.6,1.35H301.45c-1.06,0-1.47-.53-1.23-1.6l17.84-83.14a1.47,1.47,0,0,1,1.6-1.36h20a1.47,1.47,0,0,1,1.59,1.36L359,359.8l.12.49q0,1.11-1.35,1.11H340A1.39,1.39,0,0,1,338.35,360.05ZM325.19,333h8.24c.33,0,.49-.21.49-.62l-4.42-28c-.09-.33-.21-.49-.37-.49s-.29.16-.37.49l-4.06,28C324.7,332.78,324.86,333,325.19,333Z"/><path class="cls-7" d="M367.13,360.05,350.41,276.9l-.13-.49c0-.74.45-1.11,1.36-1.11h18.08a1.39,1.39,0,0,1,1.59,1.36l5.54,40.46c.08.25.2.37.37.37s.28-.12.37-.37l5.53-40.46a1.4,1.4,0,0,1,1.6-1.36h14.39a1.4,1.4,0,0,1,1.6,1.36l6.15,40.46c.08.25.2.37.37.37s.24-.12.24-.37l5-40.46A1.33,1.33,0,0,1,414,275.3H431.7c1.07,0,1.52.54,1.36,1.6l-15.87,83.15a1.38,1.38,0,0,1-1.6,1.35H399.85a1.39,1.39,0,0,1-1.6-1.35L392.1,318a.46.46,0,0,0-.43-.37c-.2,0-.31.13-.31.37L386,360.05a1.32,1.32,0,0,1-1.47,1.35H368.73A1.48,1.48,0,0,1,367.13,360.05Z"/><path class="cls-7" d="M475.31,275.73a1.43,1.43,0,0,1,1-.43h17.22a1.47,1.47,0,0,1,1.48,1.48v83.14a1.45,1.45,0,0,1-.43,1.05,1.43,1.43,0,0,1-1.05.43H474a1.62,1.62,0,0,1-1.72-1.23l-12.17-42.8a.58.58,0,0,0-.43-.43c-.21,0-.31.1-.31.43l.24,42.55a1.47,1.47,0,0,1-1.47,1.48H440.93a1.43,1.43,0,0,1-1.05-.43,1.41,1.41,0,0,1-.43-1.05V276.78a1.43,1.43,0,0,1,.43-1,1.47,1.47,0,0,1,1.05-.43h19.31a1.63,1.63,0,0,1,1.72,1.23l12.3,43.05c.08.25.22.37.43.37s.31-.16.31-.49l-.13-42.68A1.44,1.44,0,0,1,475.31,275.73Z"/></g></g></svg>